<?xml version="1.0" encoding="UTF-8"?>
<svg id="Layer_1" data-name="Layer 1" xmlns="http://www.w3.org/2000/svg" viewBox="0 0 792 792">
  <defs>
    <style>
      .cls-1 {
        fill: #010101;
      }

      .cls-2 {
        fill: #3db54a;
      }

      .cls-3 {
        fill: #231f20;
      }

      .cls-4 {
        fill: #ffde17;
      }

      .cls-5 {
        fill: #ed1c24;
      }

      .cls-6 {
        fill: #00aeef;
      }

      .cls-7 {
        fill: #fffefa;
      }
    </style>
  </defs>
  <g>
    <g>
      <path class="cls-2" d="M710.14,260.78c15.3,15.24,1.09,53.41-6.23,70.72-18.04,42.68-51.19,91.34-81.6,126.29-9.39,10.79-40.67,31.19-20.09,43.8,31.25,5.79,111.03,10.67,127.48,41.8,20.47,38.74-54.37,58.14-79.66,63.88-29.67,6.74-59.89,8.71-90.23,10.74-17.51,7.06,10.67,32.01-11.84,35.66-14.56,2.36-49.72-11.17-64.03-17.47-11.26-4.96-30.29-18.04-40.55-20.32-31.2-6.92-11.82,42.21-18.61,57.15-1.19,2.62-16.41,16.28-19.51,17.61-7.71,3.32-14.44,2.41-21.2-2.1-1.8-1.2-15.12-14.31-15.67-15.52-3.43-7.56.84-35.82-.86-46.66-3.55-22.71-37.18,1.31-47.48,5.8-15.39,6.71-63.08,24.44-77.88,21.54-19.59-3.83,6.69-29.28-10.06-35.96-35.11-2.26-70.6-3.39-104.72-12.58-23.91-6.44-84.94-27.54-64.48-62.36,18.1-30.81,93.41-34.93,125.38-40.92,19.71-11.57,1.86-21.13-6.28-30.05-35.48-38.92-71.23-87.91-92.33-136.34-9-20.67-31.13-77.36,6.93-81.19,36.97-3.71,114.8,49.43,144.63,72.17,9.43,7.19,39.35,35.55,48.5,36.18,20.5,1.41,13.24-37.78,14.04-51.17,4.11-69.08,29.27-209.92,70.05-265.54,28.2-38.46,50.73,6.31,62.35,32.14,28.91,64.27,46.12,154.21,51.7,224.49,1.21,15.26-.39,32.34,1.63,47.37.94,7.02,3.99,13.42,12.09,12.49,10.44-1.2,35.04-26.15,44.99-33.85,28.55-22.08,60.7-44.42,93.72-59.23,17.02-7.64,54.27-24.11,69.82-8.62Z"/>
      <path class="cls-3" d="M396,31.01c17.77,0,31.82,28.48,40.2,47.11,28.91,64.27,46.11,154.21,51.7,224.49,1.21,15.26-.39,32.34,1.63,47.37.88,6.56,3.6,12.58,10.56,12.58.49,0,1-.03,1.53-.09,10.44-1.2,35.04-26.15,44.99-33.85,28.55-22.08,60.7-44.42,93.72-59.23,11.92-5.35,33.77-15.03,51.13-15.03,7.43,0,14.03,1.77,18.69,6.41,15.3,15.24,1.09,53.41-6.23,70.72-18.04,42.68-51.19,91.34-81.6,126.29-9.39,10.79-40.67,31.19-20.09,43.8,31.25,5.79,111.03,10.67,127.48,41.8,20.47,38.74-54.37,58.14-79.66,63.88-29.67,6.74-59.89,8.71-90.23,10.74-17.51,7.06,10.67,32.01-11.84,35.66-1.15.19-2.43.27-3.81.27-16.17,0-47.03-11.94-60.22-17.74-11.26-4.96-30.29-18.04-40.55-20.32-2.03-.45-3.85-.66-5.47-.66-23.31,0-6.79,43.84-13.14,57.82-1.19,2.62-16.41,16.28-19.51,17.61-3.12,1.34-6.08,2-8.95,2-4.21,0-8.22-1.41-12.25-4.09-1.8-1.2-15.12-14.31-15.67-15.52-3.43-7.56.84-35.82-.86-46.66-1.11-7.08-5.14-9.62-10.48-9.62-11.78,0-29.91,12.33-37,15.42-14.24,6.21-56.16,21.86-74.06,21.86-1.44,0-2.72-.1-3.83-.32-19.59-3.83,6.69-29.28-10.06-35.96-35.11-2.26-70.6-3.39-104.72-12.58-23.91-6.44-84.94-27.54-64.48-62.36,18.1-30.81,93.41-34.93,125.38-40.92,19.71-11.57,1.86-21.13-6.28-30.05-35.48-38.92-71.23-87.91-92.33-136.34-9-20.67-31.13-77.36,6.93-81.19,1.24-.12,2.53-.19,3.85-.19,38.28,0,111.95,50.38,140.78,72.35,9.43,7.19,39.35,35.55,48.5,36.18.36.02.72.04,1.06.04,19.19,0,12.19-38.05,12.98-51.2,4.11-69.08,29.27-209.92,70.05-265.54,7.86-10.72,15.28-14.98,22.15-14.98M396,6.01c-15.82,0-30.05,8.48-42.31,25.19-20.38,27.8-38.2,73.83-52.95,136.8-13.28,56.68-20.01,110.53-21.89,142.03-.25,4.14-.03,8.64.21,13.86.03.56.06,1.19.09,1.89-4.12-3.44-8-6.78-10.58-9-5.07-4.36-9.07-7.81-12.15-10.16-7.92-6.04-36.34-27.21-69.59-46.23-36.73-21.02-64.97-31.24-86.35-31.24-2.17,0-4.3.1-6.35.31-16.23,1.63-29.32,9.62-36.86,22.49-12.06,20.6-8.96,51.2,9.5,93.56,18.89,43.36,50.75,91.3,90.18,135.86-17.59,2.51-38.28,5.72-57.26,11.19-29.35,8.45-48.43,20.76-58.34,37.62-8.44,14.37-9.85,30.21-3.96,44.6,6.28,15.36,19.97,28.14,41.86,39.08,16.11,8.05,33,13.16,41.64,15.48,29.7,8,59.68,10.32,88.85,12.12-.66,6.62.02,14.28,4.73,21.8,3.43,5.47,10.18,12.52,22.91,15.01,2.69.53,5.51.78,8.63.78,27.87,0,83.5-23.7,84.04-23.94,2.94-1.28,6.05-3,9.66-4.99.74-.41,1.66-.92,2.69-1.48-.72,15.62-.77,25.92,3.24,34.75,2.02,4.46,4.5,7.25,12.56,15.21,8.62,8.51,10.57,9.81,11.99,10.76,8.25,5.5,17.04,8.29,26.12,8.29,6.28,0,12.62-1.36,18.83-4.03,2.29-.99,6.13-2.64,17.32-12.71,10.11-9.11,13.1-13.19,15.07-17.53,4.94-10.89,3.98-23.43,3.05-35.57-.03-.41-.06-.83-.1-1.28,2,1.11,3.89,2.19,5.41,3.05,6.39,3.63,12.42,7.06,17.97,9.5,7.53,3.32,46.33,19.86,70.29,19.86,2.75,0,5.38-.2,7.82-.6,14.02-2.28,21.36-9.58,25.04-15.3,4.75-7.38,5.54-15,4.98-21.52,24.25-1.8,48.97-4.3,73.59-9.89,18.23-4.14,34.32-9.07,47.81-14.64,26.33-10.88,42.81-24.18,50.38-40.64,6.49-14.13,5.8-29.99-1.95-44.66-9.3-17.6-28.81-30.45-59.65-39.27-19.18-5.49-39.97-8.77-57.82-11.32,2.48-2.32,4.81-4.59,6.84-6.92,27.8-31.95,64.92-83.66,85.77-132.96,6.44-15.23,10.86-29.12,13.14-41.26,4.68-24.96.55-44.11-12.29-56.9-6.27-6.25-17.67-13.7-36.34-13.7-20.19,0-41.42,8.28-61.36,17.22-29.68,13.31-61.07,33.1-98.78,62.26-3.41,2.64-7.5,6.28-12.23,10.49-1.47,1.31-3.45,3.07-5.67,5.01,0-.32,0-.64,0-.96,0-7.41.02-15.08-.59-22.76-3.06-38.53-9.15-79.29-17.6-117.87-9.75-44.49-21.93-83.14-36.22-114.9-4.65-10.34-11.03-23.66-19.07-34.86-12.86-17.91-27.64-26.99-43.93-26.99h0Z"/>
    </g>
    <path class="cls-1" d="M321.09,487.9c7.92-.42,24.3,18.17,34.13,23.11,22.58,11.35,59.33,10.58,81.73-1,11.52-5.95,31.28-29.67,42.06-15.89,12.28,15.7-20.54,37.43-32.71,43.06-28.89,13.38-70.99,13.57-100,.55-12.1-5.43-37.3-22.9-36.7-37.62.24-5.82,5.61-11.91,11.47-12.22Z"/>
    <path class="cls-1" d="M430.53,401.87c17.64-17.67,53.21-18.98,72.25-2.77,10.42,8.87,30.27,40.48,11.48,48.64-16.85,7.31-17.84-16.31-25.6-24.13-9.96-10.04-30.23-10.03-40.15-.04-8.84,8.89-6.04,32.03-24.53,26.12-17.16-5.49-2.44-38.81,6.55-47.81Z"/>
    <path class="cls-1" d="M353.2,446.96c-3.29-3.34-4.95-15.22-9.33-21.11-11.2-15.05-35.81-12.48-45.78,3.2-5.17,8.13-5.31,22.17-19.61,19.23-17.4-3.59-7.67-26.28-1.71-36.09,25.72-42.3,94.67-27.16,98.19,22.77.9,12.7-13.3,20.6-21.76,12Z"/>
  </g>
  <path class="cls-6" d="M697.13,520.36c.64.55-218.08,115.86-218.08,115.86-15.26-24.39-30.1-38.85-59.29-47.21l184.12-87s80.43,7.25,93.25,18.35Z"/>
  <path class="cls-5" d="M180.53,502.44l191.08,86.57c-16.7,3.4-48.84,20.25-61.77,49.75-.52,1.19-225.36-114.68-223.47-115.85,26.14-16.22,94.16-20.48,94.16-20.48Z"/>
  <g>
    <g>
      <circle class="cls-4" cx="395.65" cy="682.48" r="91.02"/>
      <path class="cls-3" d="M395.65,785.99c-57.08,0-103.52-46.44-103.52-103.51s46.44-103.52,103.52-103.52,103.51,46.44,103.51,103.52-46.44,103.51-103.51,103.51ZM395.65,603.96c-43.29,0-78.52,35.22-78.52,78.52s35.22,78.51,78.52,78.51,78.51-35.22,78.51-78.51-35.22-78.52-78.51-78.52Z"/>
    </g>
    <path class="cls-7" d="M380.47,628.02c6.63-.89,14.58-.61,15.46,7.99,1.12,10.91-12.19,10.83-19.33,14.66-7.23,3.88-14,11.7-17.77,18.86-3.44,6.53-4.52,18.6-14.06,18.6-18.09,0-5.1-27.1.11-35.07,7.34-11.24,22.01-23.21,35.58-25.04Z"/>
  </g>
</svg>