<?xml version="1.0" encoding="UTF-8"?>
<svg id="Layer_1" data-name="Layer 1" xmlns="http://www.w3.org/2000/svg" viewBox="0 0 792 792">
  <defs>
    <style>
      .cls-1 {
        fill: #5cba47;
      }

      .cls-2 {
        fill: #48abe0;
      }

      .cls-3 {
        fill: #e98bba;
      }

      .cls-4 {
        fill: #fff;
      }

      .cls-5 {
        fill: #f8994d;
      }

      .cls-6 {
        fill: #e88ab9;
      }

      .cls-7 {
        fill: #feda00;
      }

      .cls-8 {
        fill: #5ebb47;
      }
    </style>
  </defs>
  <path d="M770.31,658.29c-.25-2.85-.89-6.19-1.87-8.86-4.76-12.92-33.62-27.94-44.12-37.41-1.63-20.12,1.56-42.21-.14-62.08-.53-6.16-1.59-9.92-6.55-13.83-3.92-3.09-25.46-13.26-26.26-14.53-1.76-2.8,1.54-6.63,2.22-9.65,6.15-27.48-3.35-55.29-29.52-67.63l.65-2.2c27.59-13.69,37.93-47.33,33.53-76.49-5.31-35.19-32.83-60.59-66.37-69.35-.7-2.83,2.09-2.24,3.8-4.21,10.98-12.73,15.98-28.25,14.45-45.11,64.33-4.07,111.75-52.7,107.26-118.55-5.1-74.82-77.3-109.23-145.34-101.38-25.11,2.9-46.21,13.13-62.76,32.17-11.09-16.83-32.23-27.19-51.71-31.45-28.35-6.21-73.15-6.94-97.99,9.97-4.07,2.77-6.58,6.31-10.7,8.65-15.12-11.55-34.03-16.15-52.7-18.14-33.05-3.52-70.99-.77-100.7,14.81-35.81-13.51-78.86-14.76-116.99-12.85-41.69,2.09-95.01,15.81-98.1,66.04-2.53,41.16,29.6,54.68,65.42,54.17-2.55,32.8-10.26,67.18-7.37,100.16,1.74,19.83,11.8,39.2,29.91,48.42-19.79,10.42-30.94,27.97-32.24,50.38-2.11,36.37,21.77,49.55,54.77,50.48-5.61,22.87-8.72,46.21-10.79,69.68l1.24,24.59,5.22,17.78c-13.54,7.37-29.72,14.1-42.54,22.4-7.39,4.78-9.25,6.29-10.05,15.7-1.7,19.88,1.49,41.96-.14,62.08-11.5,9.43-26.95,17.57-37.38,28.06-5.86,5.89-7.95,10.88-8.61,19.28-1.72,21.84-2.08,64.33.05,85.85,1.29,13.04,9.83,21.91,23.01,23.12h694.2c13.7-1.27,23.98-8.83,25.21-23.07,1.92-22.21,1.91-64.76,0-86.98ZM466.47,144.19c.89-9.83-1.08-19.47-1.41-29.22-.04-1.08-1.45-1.49.85-2.94,19.33,5.43,18.21,25.43.55,32.16ZM581.98,397.44v-23.6c25.84-.13,22.18,20,0,23.6Z"/>
  <g id="Text">
    <g>
      <g>
        <path class="cls-2" d="M105.92,544.33l585.53-.28c6.04.74,14.04,6.5,15.28,12.61,1.37,6.74.86,39.24-1.39,45.32-2.49,6.74-9.02,10.23-16.02,10.8l-580.43-.06c-9.07-.51-16.75-7.61-17.72-16.61-.82-7.69-1-32.15.48-39.22,1.46-6.98,7.94-10.75,14.26-12.56Z"/>
        <path class="cls-5" d="M251.84,629.11c99.63-.5,199.32-.78,298.82,1.01,2.88,1.53,4.96,4.51,5.07,7.8l-.5,107.9c-1.47,3.61-4.7,5.54-8.59,5.36l-298.89-.53c-3.46-1.44-4.91-3.89-5.33-7.54-3.81-32.74,2.92-72.73,0-106.25.1-5.87,4.62-6.82,9.42-7.75Z"/>
        <path class="cls-7" d="M89.88,630.22c40.53-4.36,87.28,2.65,128.47-.37,5.25-.24,8.29,2.9,8.05,8.05-1.76,32.67,2.17,67.46,0,99.87-.62,9.3-1.07,13.52-11.27,14.47-48.05-2.58-99.41,3.29-147.07,0-11.98-.82-21.55-5.73-23.02-18.82-1.3-11.57-1.68-57.8.48-68.19,3.89-18.76,26.3-33.08,44.36-35.02Z"/>
        <path class="cls-1" d="M575.78,630.13l129.63-.27c17.17-.23,42.89,17.03,46.38,34.08,2.47,12.09.06,38.49.2,52.37.04,4.15,1.41,7.98,1.15,12.87-.55,10.61-6.42,20.68-17.73,21.95-14.46,1.62-34.23-.15-49.4-.05-10.99.07-22.18.03-33.17,0-25.94-.07-51.91.59-77.83-.49-2.2-1.63-2.93-3.79-3.24-6.41-3.87-33.09,3-73.49-.04-107.37-.31-3.08,1.32-5.38,4.05-6.68Z"/>
      </g>
      <g>
        <path class="cls-3" d="M408.52,307.3c22.12-2.16,68.52.11,85.33,15.95,7.48,7.05,10.98,18.8,7.48,28.59-5.89,16.47-28.37,20.77-43.74,21.7-7.04.43-25.38-2.12-29.57,2.61-3.74,4.22-2.36,11.67,2.93,13.21,7.21,2.1,25.11-.64,34.1.23,36.26,3.5,37.05,45.98-1.18,51.37-9.21,1.3-23.87-.38-31.85,1.41-7.97,1.79-8.47,12.71-.59,15.15,8.74,2.71,25.27-.29,35.49.99,21.23,2.66,40.6,18.99,31.7,41.88-12.5,32.16-88.43,27.04-114.23,15.97-12.13-5.21-24.41-16.51-23.96-30.73.7-22.32,5.57-45.78,3.28-68.75-.37-19.87-6.12-55.04-.82-72.6,6.82-22.6,22.26-34.71,45.61-36.99Z"/>
        <path class="cls-1" d="M217.23,379.93c-6.58,2,.76,30.39,1.46,36.09,4.5,36.93,13.9,110.39-43.35,107.71-54.06-2.53-41.1-70.73-34.5-106.48,1.25-6.78,7.61-25.57,5.41-30.65-.25-.57-.49-1.1-1.07-1.4-19.68-2.39-44.1,3.7-52.36-20.33-6.65-19.33.49-39.03,17.76-49.77,19.58-12.17,78.26-10.43,102.41-9.25,27.64,1.35,65.97,8.19,62.7,44.56-1.35,14.97-16.7,29.51-31.63,29.51h-26.82Z"/>
        <path class="cls-7" d="M304.43,309.43c28.74-3.04,40.17,15.71,43.15,41.01,3.77,32.06,4.78,72.84,3.22,105.12-1.46,30.01-5.17,66.32-43.62,66.65-48.76.41-44.17-59.78-42.18-93.45.57-9.58,1.86-35.98,4.53-43.74.86-2.5,10.5-11.3,13.2-16.84,7.8-16.04,5.31-31.8-1.51-47.56,5-6.41,15.23-10.34,23.22-11.18Z"/>
        <g>
          <path class="cls-5" d="M632.53,447.4c-9.92-12.44,10.17-12.66,17.57-15.45,27.97-10.55,35.9-44.87,28.43-71.32-15.1-53.51-82.12-58.5-128.41-54.4-9.48.84-22.64,3.62-30.36,9.34-13.2,9.77-2.12,14.55-2.67,27.31-.44,10.1-7.45,16.66-8.53,23.71-2.71,17.65-3.84,43.93-4.4,62.11-.28,8.99-1.21,26.17.1,34.32,1.09,6.79,9.3,13.86,9.63,24.79.15,4.85-4.35,18.1-3.8,19.73,1.31,3.83,9.46,9.92,13.17,11.57,23.31,10.39,49.11-1.99,51.74-28.15.65-6.43-2.77-24.36,1.54-27.42,2.01-1.43,4.91-1.51,7.06-.46,3.04,1.48,7.28,18.54,9.15,23.03,6.57,15.73,19.11,30.49,35.61,36.27,31.2,10.94,61.22-11.06,46.62-44.47-7.22-16.52-25.71-26.07-42.45-30.5ZM581.98,397.44v-23.6c25.84-.13,22.18,20,0,23.6Z"/>
          <path d="M612.5,378.39c-2.37-14.7-24.56-19.18-36.72-16.47-3.22.72-5.57,3.61-6.07,6.81-.97,6.22-.79,25.6-.06,32.12,1.26,11.21,10.63,9.49,19.36,7.56,15.3-3.37,26.18-13.3,23.48-30.03ZM581.98,397.44v-23.6c25.84-.13,22.18,20,0,23.6Z"/>
        </g>
        <g>
          <path class="cls-2" d="M303.85,215.54c3.63,3.67,34.94,2.11,43.79,3.94,39.98,8.26,44.31,56.09,5.29,70.85-32.21,12.19-105.6,8.24-125.54-24.63-14.54-23.98-14.92-80.4-12.89-108.43.22-3.03,1.26-5.92,1.2-8.99,42.03-7.53,57.96-50.94,36.84-86.89-1.66-2.82-4.98-5.58-6.03-7.94-.62-1.39-1.31-.99.23-2.3,2.16-1.83,11.34-4.91,14.54-5.87,27.07-8.1,85.97-9.6,109.61,7.2,6.47,4.6,10.31,9.8,12.63,17.41,14.62,47.93-43.1,51.27-75.94,50.66-7.61,2.38-7.92,12.37.24,14.32,14.48,3.47,29.39-2.76,45.53,4.89,23.3,11.05,21.32,51.19-3.65,59.38-14.19,4.65-24.71,1.27-38.01,1.59-8.1.2-13.01,9.6-7.83,14.82Z"/>
          <path class="cls-6" d="M100.58,135.58c-15.92-3.87-32.7,2.04-48.32-4.79-25.76-11.26-23.16-47.72-5.6-65.2,30.14-30,121.26-27.66,160.39-18.79,21.82,4.95,39.04,16.89,41.72,40.89,3.47,31.09-12.48,46.16-42.27,48.69-4.74.4-16.31-1.17-19.38,1.01-5.71,4.04-.31,21.21.46,27.59,4.91,40.8,19.91,122.07-41.11,125.95-71.98,4.57-56.36-67.76-49.75-115.19,1-7.2,8.08-35.94,3.86-40.16Z"/>
          <g>
            <path class="cls-7" d="M636.41,234.27c-2.83,2.75.46,23.11-.34,29.17-3.7,28.18-42.79,39.24-63.12,21.46-7-6.12-3.38-6.14-1.9-12.46,3.32-14.21,1.66-29.87-4.75-43.11-3.1-6.4-10.93-12.96-11.69-19.42-.54-4.57-1.65-22.91-.82-26.62.92-4.11,12.95-18.82,16.05-25.79,12.28-27.55,6.12-64.53-11.93-88.16,30.9-44.08,115.59-36.47,153.26-6.35,60.13,48.07,33.89,151.13-41.53,166.42-6.15,1.25-30.78,2.47-33.23,4.85Z"/>
            <path d="M614.57,186.92c-6.34,2.68-20.97,4.58-19.17-5.95,1.19-6.95,12.27-3.71,16.09-6.5,2.53-1.84,2.19-15.02,11.78-10.71,8.43,3.79-2.82,13.75,4.27,20.42,9.7,9.12,35.07,10.81,46.11,3.1,7.93-5.54,7.03-10.33,10.54-17.35s15.32-4.41,10.74,9.67c-10.35,31.83-63.24,32.98-80.36,7.32Z"/>
            <path d="M648.75,105.54c14.75-3.06,27.29,11.04,29.86,24.37,1.35,7.02,3.08,24.19-8.58,22.61-6.77-.91-2.67-10.39-2.71-14.45-.08-7.08-5.67-19.77-13.87-20.47-5.22-.45-10.59,12.24-11.59,16.44-1.35,5.65,1.26,13.65-7.29,13.2-6.7-.35-6.5-9.53-5.81-14.5,1.14-8.2,11.41-25.42,19.99-27.2Z"/>
          </g>
          <g>
            <path class="cls-8" d="M526.4,204.86c-2.49-1.42-8.82-3.01-10.11-4.36-8.4-8.85,11.85-15.28,16.79-18.6,46.33-31.17,31.33-103.74-11.79-130.7-27.35-17.1-89.27-22.28-115.68-2.14-14.54,11.08-6.21,15.52-5.42,29.9.65,11.78-2.22,23.9-10.19,32.81-1.65,1.84-5.58,3.34-6.47,5.33-.56,1.26-1.46,10.09-1.61,12.34-1.01,15.02,2.09,30.74,1.1,45.09-1.07,15.48-7.73,28.05-5.46,45.07.52,3.9,7.41,9.31,9.92,13.69,6.5,11.35,6.23,22.49,3.31,34.84-.77,3.27-4.18,8.31-3.02,10.92.86,1.95,8.81,7.34,11.05,8.34,11.81,5.26,28.38,4.15,38.78-3.56,17.97-13.33,14.07-35.6,13.42-55.2,12.12-13.43,12.72,6.55,15.36,14.81,9.77,30.65,29.71,54.7,65.07,50.56,34.46-4.04,31.25-47.8,16.54-69.95-5.59-8.41-12.9-14.21-21.59-19.18ZM465.53,148.05c1.01-11.09-1.22-21.97-1.59-32.98-.04-1.22-.26-1.68,2.35-3.32,21.82,6.12,19.17,28.7-.76,36.3Z"/>
            <path d="M479.88,104.41c-5.66-3.1-17-6.12-23.2-4.27-2.61.78-3.71,4.31-3.99,6.74-1.52,13.1,3.02,30.19,1.17,43.94,1.51,9.7,16.53,5.14,22.5,2.26,19.13-9.26,23.27-37.86,3.53-48.66ZM467.07,145.17c.89-9.83-1.08-19.47-1.41-29.22-.04-1.08-1.45-1.49.85-2.94,19.33,5.43,18.21,25.43.55,32.16Z"/>
          </g>
        </g>
      </g>
    </g>
  </g>
  <g id="Highlights">
    <path class="cls-4" d="M227.09,89.1c-2.52,0-4.99-1.25-6.44-3.53-6.3-9.91-23.14-13.86-29.1-14.55-4.18-.48-7.19-4.26-6.71-8.44.47-4.18,4.23-7.19,8.42-6.72,1.17.13,28.73,3.39,40.27,21.52,2.26,3.55,1.21,8.27-2.34,10.53-1.27.81-2.69,1.19-4.09,1.19Z"/>
    <path class="cls-4" d="M366.7,79.39c-2.13,0-4.25-.89-5.75-2.62-10.1-11.58-28.52-11.25-28.71-11.26-4.21.15-7.71-3.21-7.83-7.41-.12-4.2,3.17-7.71,7.37-7.84,1.04-.04,25.76-.62,40.67,16.48,2.77,3.18,2.44,8-.74,10.76-1.45,1.26-3.23,1.88-5.01,1.88Z"/>
    <path class="cls-4" d="M524.8,87.37c-2.65,0-5.22-1.38-6.63-3.85-8.99-15.75-29.58-16.96-29.79-16.97-4.2-.21-7.45-3.77-7.26-7.97.19-4.2,3.73-7.44,7.92-7.27,1.18.05,29.14,1.48,42.37,24.65,2.09,3.66.82,8.32-2.84,10.41-1.19.68-2.49,1-3.78,1Z"/>
    <path class="cls-4" d="M707.75,93.95c-2.64,0-5.21-1.38-6.62-3.83-8.88-15.47-28.35-16.98-28.55-16.99-4.19-.29-7.38-3.91-7.11-8.1.27-4.19,3.84-7.38,8.05-7.13,1.13.07,27.81,1.9,40.84,24.63,2.1,3.65.83,8.32-2.82,10.41-1.2.69-2.5,1.01-3.79,1.01Z"/>
    <path class="cls-4" d="M256.15,349.87c-2.67,0-5.26-1.4-6.66-3.9-6.48-11.54-21.33-11.18-21.96-11.15-4.16.11-7.74-3.13-7.91-7.32-.17-4.19,3.06-7.73,7.25-7.92,1.01-.05,24.8-.9,35.92,18.93,2.06,3.67.75,8.32-2.92,10.39-1.18.66-2.46.98-3.73.98Z"/>
    <path class="cls-4" d="M328.33,354.03c-3.27,0-6.29-2.12-7.3-5.41-2.44-8.01-4.98-10.26-5.64-10.73-3.57-.67-6.25-3.81-6.22-7.57.04-4.19,3.45-7.56,7.63-7.56h.07c2.88.03,12.74,1.65,18.76,21.42,1.23,4.03-1.05,8.29-5.08,9.52-.74.23-1.49.33-2.22.33ZM316.73,338.02s0,0,.01,0c0,0,0,0-.01,0ZM316.71,338.02h.01-.01ZM316.7,338.02h0,0Z"/>
    <path class="cls-4" d="M340.83,159.94c-.56,0-1.13-.06-1.7-.19-2.4-.55-9.42-.89-13.64-.96-4.21-.07-7.57-3.54-7.5-7.75.07-4.21,3.54-7.56,7.75-7.51,1.96.03,11.99.24,16.78,1.33,4.11.93,6.68,5.02,5.75,9.13-.81,3.54-3.95,5.94-7.43,5.94Z"/>
    <path class="cls-4" d="M351.91,248.61c-1.54,0-3.09-.46-4.44-1.43-1.45-1.04-7.57-2.27-12.59-2.53-4.2-.22-7.44-3.81-7.22-8.01.22-4.21,3.79-7.42,8-7.23,3.34.17,14.69,1.06,20.7,5.37,3.42,2.46,4.21,7.22,1.75,10.65-1.49,2.08-3.83,3.18-6.21,3.18Z"/>
    <path class="cls-4" d="M529.47,243.07c-2.95,0-5.76-1.72-7.01-4.61-3.81-8.81-13.81-10.71-14.23-10.79-4.12-.74-6.91-4.68-6.2-8.81.71-4.13,4.59-6.92,8.72-6.24.75.12,18.56,3.22,25.72,19.78,1.67,3.87-.11,8.36-3.98,10.03-.98.43-2.01.63-3.02.63Z"/>
    <path class="cls-4" d="M652.92,487.19c-2.69,0-5.3-1.43-6.69-3.95-3.41-6.2-12.77-8.74-16.09-9.2-4.16-.57-7.09-4.4-6.54-8.57.56-4.16,4.36-7.1,8.52-6.56,2,.26,19.74,2.91,27.48,16.97,2.03,3.69.69,8.33-3,10.36-1.17.64-2.43.95-3.67.95Z"/>
    <path class="cls-4" d="M482.3,344.32c-1.58,0-3.17-.49-4.53-1.49-13.44-9.94-30.89-9.21-31.07-9.2-4.2.2-7.78-3.03-8-7.22s2.99-7.78,7.19-8.01c.93-.05,23-1.11,40.95,12.17,3.39,2.5,4.1,7.28,1.6,10.67-1.5,2.02-3.8,3.1-6.14,3.1Z"/>
    <path class="cls-4" d="M468.42,415.09c-1.35,0-2.71-.36-3.95-1.11-.31-.1-1.52-.05-2.29.15-4.04,1.19-8.24-1.12-9.43-5.16s1.16-8.3,5.2-9.49c1.35-.4,8.4-2.21,14.45,1.46,3.6,2.19,4.75,6.88,2.56,10.48-1.43,2.37-3.95,3.67-6.53,3.67Z"/>
    <path class="cls-4" d="M475.37,484.55c-.85,0-1.71-.14-2.55-.44-3.41-1.21-8.62-.62-10.18-.32-4.11.79-8.13-1.89-8.94-6.02-.81-4.12,1.85-8.12,5.97-8.95,1.03-.21,10.25-1.93,18.25.91,3.97,1.41,6.05,5.77,4.64,9.74-1.11,3.13-4.05,5.08-7.19,5.08Z"/>
    <path class="cls-4" d="M641.82,349.87c-2.26,0-4.49-.99-5.99-2.9-6.65-8.42-23.82-10.58-29.87-10.7-4.21-.08-7.56-3.56-7.48-7.77.08-4.16,3.47-7.49,7.62-7.49.04,0,.09,0,.13,0,2.96.05,29.29.93,41.58,16.5,2.61,3.31,2.05,8.1-1.26,10.72-1.4,1.11-3.07,1.64-4.72,1.64Z"/>
  </g>
</svg>