<?xml version="1.0" encoding="UTF-8"?>
<svg id="Layer_1" data-name="Layer 1" xmlns="http://www.w3.org/2000/svg" viewBox="0 0 792 792">
  <defs>
    <style>
      .cls-1 {
        fill: #010101;
      }

      .cls-2 {
        fill: #3db54a;
      }

      .cls-3 {
        fill: #ffde17;
      }

      .cls-4 {
        fill: #ed1c24;
      }

      .cls-5 {
        fill: #00aeef;
      }

      .cls-6 {
        fill: #fffefa;
      }
    </style>
  </defs>
  <g>
    <path class="cls-2" d="M710.14,260.78c15.3,15.24,1.09,53.41-6.23,70.72-18.04,42.68-51.19,91.34-81.6,126.29-9.39,10.79-40.67,31.19-20.09,43.8,31.25,5.79,111.03,10.67,127.48,41.8,20.47,38.74-54.37,58.14-79.66,63.88-29.67,6.74-59.89,8.71-90.23,10.74-17.51,7.06,10.67,32.01-11.84,35.66-14.56,2.36-49.72-11.17-64.03-17.47-11.26-4.96-30.29-18.04-40.55-20.32-31.2-6.92-11.82,42.21-18.61,57.15-1.19,2.62-16.41,16.28-19.51,17.61-7.71,3.32-14.44,2.41-21.2-2.1-1.8-1.2-15.12-14.31-15.67-15.52-3.43-7.56.84-35.82-.86-46.66-3.55-22.71-37.18,1.31-47.48,5.8-15.39,6.71-63.08,24.44-77.88,21.54-19.59-3.83,6.69-29.28-10.06-35.96-35.11-2.26-70.6-3.39-104.72-12.58-23.91-6.44-84.94-27.54-64.48-62.36,18.1-30.81,93.41-34.93,125.38-40.92,19.71-11.57,1.86-21.13-6.28-30.05-35.48-38.92-71.23-87.91-92.33-136.34-9-20.67-31.13-77.36,6.93-81.19,36.97-3.71,114.8,49.43,144.63,72.17,9.43,7.19,39.35,35.55,48.5,36.18,20.5,1.41,13.24-37.78,14.04-51.17,4.11-69.08,29.27-209.92,70.05-265.54,28.2-38.46,50.73,6.31,62.35,32.14,28.91,64.27,46.12,154.21,51.7,224.49,1.21,15.26-.39,32.34,1.63,47.37.94,7.02,3.99,13.42,12.09,12.49,10.44-1.2,35.04-26.15,44.99-33.85,28.55-22.08,60.7-44.42,93.72-59.23,17.02-7.64,54.27-24.11,69.82-8.62Z"/>
    <path class="cls-1" d="M321.09,487.9c7.92-.42,24.3,18.17,34.13,23.11,22.58,11.35,59.33,10.58,81.73-1,11.52-5.95,31.28-29.67,42.06-15.89,12.28,15.7-20.54,37.43-32.71,43.06-28.89,13.38-70.99,13.57-100,.55-12.1-5.43-37.3-22.9-36.7-37.62.24-5.82,5.61-11.91,11.47-12.22Z"/>
    <path class="cls-1" d="M430.53,401.87c17.64-17.67,53.21-18.98,72.25-2.77,10.42,8.87,30.27,40.48,11.48,48.64-16.85,7.31-17.84-16.31-25.6-24.13-9.96-10.04-30.23-10.03-40.15-.04-8.84,8.89-6.04,32.03-24.53,26.12-17.16-5.49-2.44-38.81,6.55-47.81Z"/>
    <path class="cls-1" d="M353.2,446.96c-3.29-3.34-4.95-15.22-9.33-21.11-11.2-15.05-35.81-12.48-45.78,3.2-5.17,8.13-5.31,22.17-19.61,19.23-17.4-3.59-7.67-26.28-1.71-36.09,25.72-42.3,94.67-27.16,98.19,22.77.9,12.7-13.3,20.6-21.76,12Z"/>
  </g>
  <path class="cls-5" d="M697.13,520.36c.64.55-218.08,115.86-218.08,115.86-15.26-24.39-30.1-38.85-59.29-47.21l184.12-87s80.43,7.25,93.25,18.35Z"/>
  <path class="cls-4" d="M180.53,502.44l191.08,86.57c-16.7,3.4-48.84,20.25-61.77,49.75-.52,1.19-225.36-114.68-223.47-115.85,26.14-16.22,94.16-20.48,94.16-20.48Z"/>
  <g>
    <circle class="cls-3" cx="395.65" cy="682.48" r="91.02"/>
    <path class="cls-6" d="M380.47,628.02c6.63-.89,14.58-.61,15.46,7.99,1.12,10.91-12.19,10.83-19.33,14.66-7.23,3.88-14,11.7-17.77,18.86-3.44,6.53-4.52,18.6-14.06,18.6-18.09,0-5.1-27.1.11-35.07,7.34-11.24,22.01-23.21,35.58-25.04Z"/>
  </g>
</svg>